<mxfile host="app.diagrams.net" agent="Mozilla/5.0 (Windows NT 10.0; Win64; x64) AppleWebKit/537.36 (KHTML, like Gecko) Chrome/135.0.0.0 Safari/537.36" version="26.2.13" pages="2">
  <diagram name="Page-1" id="PaEpYxZjW2ARaaTHafkD">
    <mxGraphModel dx="7756" dy="3170" grid="1" gridSize="10" guides="1" tooltips="1" connect="1" arrows="1" fold="1" page="1" pageScale="1" pageWidth="2336" pageHeight="1654" math="0" shadow="0">
      <root>
        <mxCell id="0" />
        <mxCell id="1" parent="0" />
        <mxCell id="YYszYzWy7kJKxbxRJTAu-140" value="" style="rounded=0;whiteSpace=wrap;html=1;align=left;verticalAlign=top;" parent="1" vertex="1">
          <mxGeometry x="-4050" y="-1540" width="977" height="537" as="geometry" />
        </mxCell>
        <mxCell id="0HQ5hYbZlLRODxi1FuQu-6" value="Testing" style="rounded=0;whiteSpace=wrap;html=1;align=left;verticalAlign=top;" vertex="1" parent="1">
          <mxGeometry x="-3732" y="-1527" width="638" height="242" as="geometry" />
        </mxCell>
        <mxCell id="YYszYzWy7kJKxbxRJTAu-82" value="" style="rounded=0;whiteSpace=wrap;html=1;" parent="1" vertex="1">
          <mxGeometry x="-4030" y="-1379.6" width="270" height="207.6" as="geometry" />
        </mxCell>
        <mxCell id="YYszYzWy7kJKxbxRJTAu-86" value="" style="edgeStyle=none;curved=1;rounded=0;orthogonalLoop=1;jettySize=auto;html=1;fontSize=12;startSize=8;endSize=8;" parent="1" source="YYszYzWy7kJKxbxRJTAu-22" target="YYszYzWy7kJKxbxRJTAu-80" edge="1">
          <mxGeometry relative="1" as="geometry" />
        </mxCell>
        <mxCell id="YYszYzWy7kJKxbxRJTAu-22" value="Azure Pipeline" style="image;sketch=0;aspect=fixed;html=1;points=[];align=center;fontSize=12;image=img/lib/mscae/Azure_Pipelines.svg;" parent="1" vertex="1">
          <mxGeometry x="-3954" y="-1310.7" width="50" height="50" as="geometry" />
        </mxCell>
        <mxCell id="YYszYzWy7kJKxbxRJTAu-46" value="Self-Hosted Agent" style="image;aspect=fixed;html=1;points=[];align=center;fontSize=12;image=img/lib/azure2/other/VM_Application_Definition.svg;" parent="1" vertex="1">
          <mxGeometry x="-3990" y="-1377" width="28.15" height="26" as="geometry" />
        </mxCell>
        <mxCell id="0HQ5hYbZlLRODxi1FuQu-2" style="edgeStyle=none;curved=1;rounded=0;orthogonalLoop=1;jettySize=auto;html=1;fontSize=12;startSize=8;endSize=8;" edge="1" parent="1" source="YYszYzWy7kJKxbxRJTAu-52" target="0HQ5hYbZlLRODxi1FuQu-1">
          <mxGeometry relative="1" as="geometry" />
        </mxCell>
        <mxCell id="YYszYzWy7kJKxbxRJTAu-52" value="Repository" style="image;sketch=0;aspect=fixed;html=1;points=[];align=center;fontSize=12;image=img/lib/mscae/Azure_Repos.svg;" parent="1" vertex="1">
          <mxGeometry x="-4283" y="-1306.02" width="45" height="50" as="geometry" />
        </mxCell>
        <mxCell id="YYszYzWy7kJKxbxRJTAu-66" style="edgeStyle=none;curved=1;rounded=0;orthogonalLoop=1;jettySize=auto;html=1;fontSize=12;startSize=8;endSize=8;" parent="1" source="YYszYzWy7kJKxbxRJTAu-54" target="YYszYzWy7kJKxbxRJTAu-65" edge="1">
          <mxGeometry relative="1" as="geometry" />
        </mxCell>
        <mxCell id="YYszYzWy7kJKxbxRJTAu-54" value="Data Engineer" style="verticalLabelPosition=bottom;html=1;verticalAlign=top;align=center;strokeColor=none;fillColor=#00BEF2;shape=mxgraph.azure.user;" parent="1" vertex="1">
          <mxGeometry x="-4510" y="-1307.02" width="47.5" height="52" as="geometry" />
        </mxCell>
        <mxCell id="YYszYzWy7kJKxbxRJTAu-67" value="" style="edgeStyle=none;curved=1;rounded=0;orthogonalLoop=1;jettySize=auto;html=1;fontSize=12;startSize=8;endSize=8;" parent="1" source="YYszYzWy7kJKxbxRJTAu-65" target="YYszYzWy7kJKxbxRJTAu-52" edge="1">
          <mxGeometry relative="1" as="geometry" />
        </mxCell>
        <mxCell id="YYszYzWy7kJKxbxRJTAu-65" value="Entra" style="image;aspect=fixed;html=1;points=[];align=center;fontSize=12;image=img/lib/azure2/other/Entra_Identity.svg;" parent="1" vertex="1">
          <mxGeometry x="-4398" y="-1311.24" width="68" height="60.440000000000005" as="geometry" />
        </mxCell>
        <mxCell id="YYszYzWy7kJKxbxRJTAu-189" style="edgeStyle=none;curved=1;rounded=0;orthogonalLoop=1;jettySize=auto;html=1;fontSize=12;startSize=8;endSize=8;" parent="1" source="YYszYzWy7kJKxbxRJTAu-75" target="YYszYzWy7kJKxbxRJTAu-188" edge="1">
          <mxGeometry relative="1" as="geometry" />
        </mxCell>
        <mxCell id="YYszYzWy7kJKxbxRJTAu-75" value="Container Registry" style="image;aspect=fixed;html=1;points=[];align=center;fontSize=12;image=img/lib/azure2/containers/Container_Registries.svg;" parent="1" vertex="1">
          <mxGeometry x="-3703" y="-1461" width="68" height="61" as="geometry" />
        </mxCell>
        <mxCell id="YYszYzWy7kJKxbxRJTAu-80" value="Azure Pipeline" style="image;sketch=0;aspect=fixed;html=1;points=[];align=center;fontSize=12;image=img/lib/mscae/Azure_Pipelines.svg;" parent="1" vertex="1">
          <mxGeometry x="-3833" y="-1309" width="50" height="50" as="geometry" />
        </mxCell>
        <mxCell id="YYszYzWy7kJKxbxRJTAu-104" value="" style="group" parent="1" vertex="1" connectable="0">
          <mxGeometry x="-3803" y="-974" width="397" height="113" as="geometry" />
        </mxCell>
        <mxCell id="YYszYzWy7kJKxbxRJTAu-35" value="" style="group;fillColor=default;strokeColor=default;container=0;" parent="YYszYzWy7kJKxbxRJTAu-104" vertex="1" connectable="0">
          <mxGeometry y="14" width="397" height="99" as="geometry" />
        </mxCell>
        <mxCell id="YYszYzWy7kJKxbxRJTAu-6" value="Monitor" style="image;aspect=fixed;html=1;points=[];align=center;fontSize=12;image=img/lib/azure2/management_governance/Monitor.svg;" parent="YYszYzWy7kJKxbxRJTAu-104" vertex="1">
          <mxGeometry x="170.23675496688742" y="25.205000000000155" width="42.06622516556291" height="42.06622516556291" as="geometry" />
        </mxCell>
        <mxCell id="YYszYzWy7kJKxbxRJTAu-11" value="Cost" style="image;aspect=fixed;html=1;points=[];align=center;fontSize=12;image=img/lib/azure2/general/Cost_Management_and_Billing.svg;" parent="YYszYzWy7kJKxbxRJTAu-104" vertex="1">
          <mxGeometry x="84.7914391709591" y="23.205000000000155" width="44.6953642384106" height="44.6953642384106" as="geometry" />
        </mxCell>
        <mxCell id="YYszYzWy7kJKxbxRJTAu-73" value="Log Analytics" style="image;aspect=fixed;html=1;points=[];align=center;fontSize=12;image=img/lib/azure2/analytics/Log_Analytics_Workspaces.svg;" parent="YYszYzWy7kJKxbxRJTAu-104" vertex="1">
          <mxGeometry x="337.84437086092714" y="25.205000000000155" width="42.06622516556291" height="42.06622516556291" as="geometry" />
        </mxCell>
        <mxCell id="YYszYzWy7kJKxbxRJTAu-70" value="Application Insights" style="image;sketch=0;aspect=fixed;html=1;points=[];align=center;fontSize=12;image=img/lib/mscae/Application_Insights.svg;" parent="YYszYzWy7kJKxbxRJTAu-104" vertex="1">
          <mxGeometry x="264.22847682119203" y="32.205000000000155" width="21.033112582781456" height="32.86423841059602" as="geometry" />
        </mxCell>
        <mxCell id="YYszYzWy7kJKxbxRJTAu-134" value="Azure Cosmos DB" style="image;aspect=fixed;html=1;points=[];align=center;fontSize=12;image=img/lib/azure2/databases/Azure_Cosmos_DB.svg;" parent="1" vertex="1">
          <mxGeometry x="-3173.7200000000003" y="-1369.9973248332997" width="61" height="61" as="geometry" />
        </mxCell>
        <mxCell id="YYszYzWy7kJKxbxRJTAu-135" value="Azure MySQL&lt;div&gt;&lt;br&gt;&lt;/div&gt;" style="image;sketch=0;aspect=fixed;html=1;points=[];align=center;fontSize=12;image=img/lib/mscae/Azure_Database_for_MySQL_servers.svg;" parent="1" vertex="1">
          <mxGeometry x="-3173.7200000000003" y="-1494.001421131166" width="46.36" height="61" as="geometry" />
        </mxCell>
        <mxCell id="YYszYzWy7kJKxbxRJTAu-136" value="" style="endArrow=classic;startArrow=classic;html=1;rounded=0;fontSize=12;startSize=8;endSize=8;curved=1;exitX=0.891;exitY=0.636;exitDx=0;exitDy=0;exitPerimeter=0;" parent="1" source="YYszYzWy7kJKxbxRJTAu-178" target="YYszYzWy7kJKxbxRJTAu-135" edge="1">
          <mxGeometry width="50" height="50" relative="1" as="geometry">
            <mxPoint x="-3243" y="-1500.4502015090266" as="sourcePoint" />
            <mxPoint x="-3460.36" y="-1500" as="targetPoint" />
          </mxGeometry>
        </mxCell>
        <mxCell id="YYszYzWy7kJKxbxRJTAu-137" value="" style="endArrow=classic;html=1;rounded=0;fontSize=12;startSize=8;endSize=8;curved=1;" parent="1" source="YYszYzWy7kJKxbxRJTAu-147" target="YYszYzWy7kJKxbxRJTAu-178" edge="1">
          <mxGeometry width="50" height="50" relative="1" as="geometry">
            <mxPoint x="-3581" y="-1422" as="sourcePoint" />
            <mxPoint x="-3357" y="-1429.8285714285714" as="targetPoint" />
          </mxGeometry>
        </mxCell>
        <mxCell id="YYszYzWy7kJKxbxRJTAu-147" value="Azure Kubernetes&amp;nbsp;" style="image;aspect=fixed;html=1;points=[];align=center;fontSize=12;image=img/lib/azure2/compute/Kubernetes_Services.svg;" parent="1" vertex="1">
          <mxGeometry x="-3474" y="-1460" width="68" height="60" as="geometry" />
        </mxCell>
        <mxCell id="YYszYzWy7kJKxbxRJTAu-159" style="edgeStyle=none;curved=1;rounded=0;orthogonalLoop=1;jettySize=auto;html=1;fontSize=12;startSize=8;endSize=8;exitX=0.909;exitY=0.718;exitDx=0;exitDy=0;exitPerimeter=0;" parent="1" source="YYszYzWy7kJKxbxRJTAu-178" target="YYszYzWy7kJKxbxRJTAu-134" edge="1">
          <mxGeometry relative="1" as="geometry">
            <mxPoint x="-3243" y="-1480.5221997077804" as="sourcePoint" />
          </mxGeometry>
        </mxCell>
        <mxCell id="YYszYzWy7kJKxbxRJTAu-192" style="edgeStyle=none;curved=1;rounded=0;orthogonalLoop=1;jettySize=auto;html=1;entryX=1;entryY=0.5;entryDx=0;entryDy=0;fontSize=12;startSize=8;endSize=8;" parent="1" source="YYszYzWy7kJKxbxRJTAu-167" target="YYszYzWy7kJKxbxRJTAu-140" edge="1">
          <mxGeometry relative="1" as="geometry" />
        </mxCell>
        <mxCell id="YYszYzWy7kJKxbxRJTAu-167" value="Entra" style="image;aspect=fixed;html=1;points=[];align=center;fontSize=12;image=img/lib/azure2/other/Entra_Identity.svg;" parent="1" vertex="1">
          <mxGeometry x="-2927" y="-1302.22" width="68" height="60.440000000000005" as="geometry" />
        </mxCell>
        <mxCell id="YYszYzWy7kJKxbxRJTAu-175" value="" style="edgeStyle=none;curved=1;rounded=0;orthogonalLoop=1;jettySize=auto;html=1;fontSize=12;startSize=8;endSize=8;" parent="1" source="YYszYzWy7kJKxbxRJTAu-168" target="YYszYzWy7kJKxbxRJTAu-185" edge="1">
          <mxGeometry relative="1" as="geometry" />
        </mxCell>
        <mxCell id="YYszYzWy7kJKxbxRJTAu-168" value="Data Engineer" style="verticalLabelPosition=bottom;html=1;verticalAlign=top;align=center;strokeColor=none;fillColor=#00BEF2;shape=mxgraph.azure.user;" parent="1" vertex="1">
          <mxGeometry x="-2676" y="-1289.0000000000002" width="47.5" height="50" as="geometry" />
        </mxCell>
        <mxCell id="YYszYzWy7kJKxbxRJTAu-178" value="Private Endpoint" style="image;aspect=fixed;html=1;points=[];align=center;fontSize=12;image=img/lib/azure2/networking/Private_Endpoint.svg;" parent="1" vertex="1">
          <mxGeometry x="-3340" y="-1451.87" width="48.95" height="44.87" as="geometry" />
        </mxCell>
        <mxCell id="YYszYzWy7kJKxbxRJTAu-180" value="Virtual Network" style="image;sketch=0;aspect=fixed;html=1;points=[];align=center;fontSize=12;image=img/lib/mscae/Virtual_Network.svg;" parent="1" vertex="1">
          <mxGeometry x="-4021" y="-1527" width="35.72" height="20" as="geometry" />
        </mxCell>
        <mxCell id="YYszYzWy7kJKxbxRJTAu-185" value="VPN" style="image;sketch=0;aspect=fixed;html=1;points=[];align=center;fontSize=12;image=img/lib/mscae/VPN_Gateway.svg;" parent="1" vertex="1">
          <mxGeometry x="-2800" y="-1283.52" width="45" height="50" as="geometry" />
        </mxCell>
        <mxCell id="YYszYzWy7kJKxbxRJTAu-186" style="edgeStyle=none;curved=1;rounded=0;orthogonalLoop=1;jettySize=auto;html=1;entryX=0.952;entryY=0.767;entryDx=0;entryDy=0;entryPerimeter=0;fontSize=12;startSize=8;endSize=8;" parent="1" source="YYszYzWy7kJKxbxRJTAu-185" target="YYszYzWy7kJKxbxRJTAu-167" edge="1">
          <mxGeometry relative="1" as="geometry" />
        </mxCell>
        <mxCell id="YYszYzWy7kJKxbxRJTAu-190" style="edgeStyle=none;curved=1;rounded=0;orthogonalLoop=1;jettySize=auto;html=1;fontSize=12;startSize=8;endSize=8;" parent="1" source="YYszYzWy7kJKxbxRJTAu-188" target="YYszYzWy7kJKxbxRJTAu-147" edge="1">
          <mxGeometry relative="1" as="geometry" />
        </mxCell>
        <mxCell id="YYszYzWy7kJKxbxRJTAu-188" value="" style="image;aspect=fixed;html=1;points=[];align=center;fontSize=12;image=img/lib/azure2/identity/Entra_Managed_Identities.svg;" parent="1" vertex="1">
          <mxGeometry x="-3588" y="-1461" width="68" height="60.440000000000005" as="geometry" />
        </mxCell>
        <mxCell id="YYszYzWy7kJKxbxRJTAu-196" value="" style="endArrow=classic;startArrow=classic;html=1;rounded=0;fontSize=12;startSize=8;endSize=8;curved=1;" parent="1" source="YYszYzWy7kJKxbxRJTAu-22" target="YYszYzWy7kJKxbxRJTAu-75" edge="1">
          <mxGeometry width="50" height="50" relative="1" as="geometry">
            <mxPoint x="-3754" y="-1415.5" as="sourcePoint" />
            <mxPoint x="-3704" y="-1465.5" as="targetPoint" />
          </mxGeometry>
        </mxCell>
        <mxCell id="0HQ5hYbZlLRODxi1FuQu-32" value="" style="edgeStyle=none;curved=1;rounded=0;orthogonalLoop=1;jettySize=auto;html=1;fontSize=12;startSize=8;endSize=8;" edge="1" parent="1" source="0HQ5hYbZlLRODxi1FuQu-1" target="YYszYzWy7kJKxbxRJTAu-22">
          <mxGeometry relative="1" as="geometry" />
        </mxCell>
        <mxCell id="0HQ5hYbZlLRODxi1FuQu-1" value="Terraform" style="shape=image;verticalLabelPosition=bottom;labelBackgroundColor=default;verticalAlign=top;aspect=fixed;imageAspect=0;image=data:image/png,iVBORw0KGgoAAAANSUhEUgAAAwQAAAGUCAYAAACLAuWIAAAABmJLR0QA/wD/AP+gvaeTAAAACXBIWXMAAC4jAAAuIwF4pT92AAAAB3RJTUUH4QocCiUrCGs+cAAAIABJREFUeNrt3XeYJFW98PHvbF6WJboEG5QsOQsIomNAEbQEQQUtQZCLAbkYAAVFwQTI1cuLKCqoCC2IXgktiCBIoyIKokiOEkvyLhk2zvvHOe329vbErp5O38/z9DMzPV3V1edUVZ/fiSBJkiRJkiRJkiRJkiRJkiRJkiRJkiRJkiRJkiRJkiRJkiRJkiRJkiRJkiRJkiRJkiRJkiRJkiRJkiRJkiRJkiRJkiRJkiRJkiRJkiRJkiRJkiRJkiRJkiRJkiRJkiRJkiRJkiRJkiRJkiRJkiRJkiRJkiRJkiRJkiRJkiRJkiRJkiRJkiRJkiRJkiRJkiRJkiRJkiRJkiRJkiRJkiRJkiRJkiRJkiRJkiRJkiRJkiRJkiRJkiRJkiRJkiRJkiRJkiRJkiRJkiRJkiRJkiRJkiRJkiRJkiRJkiRJkiRJkiRJkiRJkiRJkiRJkiRJkiRJkiRJkiRJkiRJkiRJkiRJkiRJkiRJkiRJkiRJkiRJkiRJkiRJkiRJkiRJkiRJkiRJkiRJkiRJkiRJkiRJkiRJkiRJkiRJkiRJkiRJkiRJkiRJkiRJkiRJkiRJkiRJkiRJkiRJkiRJkiRJkiRJkiRJkiRJkiRJkiRJkiRJkiRJkiRJkiRJkiRJkiRJkiRJkiRJkiRJkiRJkiRJkiRJkiRJkiRJkiRJkiRJkiRJkiRJkiRJkiRJkiRJkiRJkiRJkiRJkiRJkiRJkiRJkiRJkiRJkiRJkiRJkiRJkiRJkiRJkiRJkiRJkiRJkiRJkiRJkiRJkiRJkiRJkiRJkiRJkiRJkiRJkiRJkiRJkiRJkiRJkiRJkiRJkiRJkiRJkiRJktSF+tr1wNIkm1IsFebF3ymWCuaWtKRXAJtW/T0fuGaI108FdgIWxb8nAdcCL7TwM2wDvBa4F7gReGIM+1gTWA8YiH8/Bdw8zDarAJsBC+N98AXgQeBRTytJktonINg2TbK/pkm2bppkfaaItJS9YiG48pgzzOsLNa8fADZv8Wc4tOZ4fjeGfRxes49L67ymD1gXKNVJg9rHw8ABnl6SpF4xoY2PbQGwHXAH8JM0yWbFQMFck4JKAbb6mhnLPlr9GarNH8M+FtX8vbDOa04D7gHeNYL9FYBNPL0kSQYE7WEhoVvD/sDjaZJ9qHLMBgaSRuhjwEdHuc31JpskqVdM6rDjPQs4Ok2yo4ulwgWOLZAE3A9czuKWghtq/n9MnW0eJXQfeib+PQBsAawDrA/8yWSVJBkQtK8NgfPTJCsDe6ZJ9nSxVHDgsdS7zo+PelYBXlnz3KXAbiabJEmdGxBU9ANPAmenSXaAQYGUiw0IMxdtSuhL/wrCgNzbCDMBXUqoXe+j/viDiYTBzpsCG7F4Bp+7gceAfxBmAJo7yPtXTyCwPvBmwixCmwI3AT8kDPqttk78f+V4HgOui7+vUec9jm4gfXYCXgdsCUwnDOT+J/DXqvesd6+aGX9/EbiaxeM9DozbV1o1dgGmEbpG3g7cFZ9/N2EA+NaEVo2/EcZFLPSUlST1ckBQKXx8GPhwmmR7AL8F5hoYSKPWFwvcmw7y/z2rfj+D0C+/tjCaABeN4L1eB/xlkP9NAPYDTiLU7ld7N6H7z24sOZPQXsA3q/6+HHh7/L1e0DKWqUW3Aa6qKtjXcwuwN3BnzfM/iIEWwOyYxlsCvwRmAJ+rCgh+DqwUf784bnsRS4/32h/4DvAmoOzpK0lqxIQu+iwXAtemSfZ2gwFp1AZiQDASBwHn1dw/thhhMMAQwQCEGvKf1gkGqn2PUDtfURuYzM85bT5BqJGfOczrKq0YW9Y8P6/q9+ViAf43MRiAMB1qvdfuBvx6mPv0lYT1JSRJGrNJXfZ5tgJ+mybZb4GDiqWCUxGpl0wkdJ8ZbN2OVYfZ/kZgH+A5Qjefyn76gBVrCp67AisQarwB3lmnUP4koYvMMvG56cCzwxzDSNYcWZXQFejucUjTacBXap5bCDxN6Pa0TEyHiinAFYSuVoPdczeoeW67QV5bHQi8FN9zWsyL6tf8bwxaJEkakwld+rl2BW5Lk+yHaZJNBKcpVU9YkdDP/55BHtcMs/0PCX3UtyCs/Lt+/LkBoTtQ9YrGM1iyf/6KNfs6t2r7yj42Z3FXnuE8CZwQX/8plmwF6BvHe9fuwMo1wcB/ARvHz7UpcFTNNisDO49w/1cw9CJoCwjdg7auSsvaGZDe76kvSTIgqG+5+MX9ZJpkexFqTw0MpME9Qxjg+gChRvoFQg3/c7Hg+kTN6zeu+r22r/7zVQHEi/HvhwgLDQ7lUeC9wKxY0L4c+DFLDyQeL/01f98O/AR4PKZRFgOX2TWv22GY/d5FGEuxC6FlZjB7EKZbviOm42zgCzWvmeypK0kyIBjaCsD/ATekSfbmymxEkkZlEUv2b688V1Hb/fCDwJl1CtTD+Xu8XmvvU30t+tzb1CnI13N5zd/rDLHP82Mw9ZcRBmm1png6SpLyNKmHPusWwJVpkp1BmKnkUcCpStVNXibUpg9WeJ5BmMFnKDOBV8XHOiyu+Z/Pkn3la11J6NpTsTyhq8v+8e9fEAYDX0eoWR9MX5ul6YQRHt/zNX8PDLHPxxn5dKF9ntaSJAOC/B0EvD9NstOKpcLnDAbURZ4HDhni/6sOExBUVuhdZQzvfQlQBNJB/v+++LiZMJZAkiS1iQk9+rlnAkemSTYnTbJdHHgsKwBYhjBOYNYY9z0AfIjQxeY3hK419WYU2gz4ZBem7YCnlyTJgKAzrUDo+3t9mmRr2VqgHrYSoWWg0kVlAaGLz0cIg/M/TFgBeDh/J8zMsyWhn/yBdV7zjhZ/1tGs7jtxhK9b1VNIkmRA0Nm2Au5Lk+ykNMmMCtSLliHMcV9xP/DfhDEJZxAWC3tmFPurzMDzE+DbNf8bz4W06hX+9xzF9n+pU4lQT+1aAs/ldPyL6jznrEKSJAOCJjqcsH7B8ZUn7EakHtU3SNAwmFWBtQb5X203pInj+Dnqrb58KnAiYaKBTaoeewJHAn+tClr+WLPtzoSpQqsdC6xW89yvczr+ei0PteseTPJ0lSQ1wi+SpS0HfD5NsgQ4rFgqXFEJDOxSpC72AqFWf3r8e13gYuB6QgvaO4fZfu9Y0IawZsBf4v1lFrBTzWuvGufPdjqh21PF5FjwP3KIbXaMx3k+YUXiqVX3zMsJazK8QFiEbGbNtk+x9OJhY/Wr+PO+GEitTJgtqtpPPX0lSY2whWBwGwOXpUn2zzTJ1nP9AnW5JwjdhKrtSpii950j2H6rqt/XiAHCHnWCAQi18+Pp84yuuxOElYEhjKU4vs7/ZxFaRGbW+d8eTfgMaxOmgp1R53+f8PSVJBkQNDd9NgfuTpPsOGLzvYGB2sREluzas8wwr+8b4h4wjzAA+MlBtr2XMB6gWnUL40zCOghDeYSwYNncqudq+8NPG+S4l6l5Td8Q+6gdozAbKBBaPJ4YYdq+uur344DDCCs4D+UWYB+Wbh2YXvN3XguLZcB7cIYjSVKD2nbRmzTJtgT+xvj2Nx7Oc8A3iqXCCZ46agNTCQuAVSwaokBfKfzPqipA9hG6tyyoes1ysZC5TXzdv4GfExbTejEGxZXtn6kq3E+NhfY147bbsHhAb1/cx80sPdh2OkvWss8Dnq5zn1qp6l4wEAv5C6sCoWWrXj+X+i0CffF1GxNmOlqppjB9E/DPGPy8zNILqE0n1NTvTei6U9nnbcClMeCZV+d9V6oJnl5i8EHHj7DkeIS94ntsGfOm8vkvjPfH570MJEkGBK1xI/C5YqlweTxWxxdIykNtQLAz+Y1HkCSpLrsMjc2WwG/SJPtzmmTTHF8gqUn6TAJJkgFB+5oIvA54KY4vWAEcXyBJkiQDgl70JeDRNMk+aNchSZIkGRD0pqlA0WSQlCO7DEmSms6FySSpfVQmUbgTKLP02hCSJOXOFoImqx5T4PiC8dffX5psKqiDvIbQKrAh8DHgQZNEkmRA0PmmpUn2+zTJVnM2onEJACo/J/T3l04B/p+pog4yxySQJBkQdKfXAo+kSfYDYBWwtaBZgUC5nNDfXzqA0OXiUOovFCVJkiQDgnFVWVH14BgYHFSZjcjAINdAYKP+/tKtwI+B9eJLHJQpSZI0BAcVtyYIOz1NssOArxVLhfNMkrEHAzEQWBs4FtjPVJEkSTIg6BSbAj9Pk+xo4E3A7MoYA9cyGD4IgP+0CnwS+I4pI0nD6iNUSk0ktFy/DdgImAUM1Hn9E8BthNmu7gcWVT0GTE7JgED52Rx4HPhemmRHF0uF5w0KBlcJBvr7SwcCR7G4a5Akqb6pwAeAXYANCBVSU8ewnznAA4TZr+4H/gBcDTxpEksGBGrcRMIA2EPTJHsPcBGhBkYs0TWoD1gJuArYzJSRpCEtC3wV+FRO+1sxPraMf/93/Hki8HmTW+pcDipuP+cD16VJ9q7KE70+8DgGA8sAPyLURBkMSNLQTgQezjEYGMpzJrfU2WwhaE/bAKU0yS4APlIsFeZUAoNe60rU31+aCuwNFD0tJGlYM4ErgO3G8T2dLk8yIFAT7Qm8LU2y04Bji6XCC90eFFQPGu7vL+0NfBHYwlOhrtWArejtqVUnADcAj3g6SKwM/B141Ti+50JcUVsyIFDTzQAOBz6ZJtmehJqfBd0aGMTuQasD/wfsaPYP6fXAL00GUuBnJoPEP4Hx/mJYaEAudT7HEHSOacClwDVpkr2um4KByuJi/f2lmf39pR8DdxsMjIhT/y0ukEi97uctCAYq96HZJr9kQKDxtR3w5zTJzk2TbNVuCASASf39pX2Bx4ADCK0ikqSRWZ/QxbRVAfljZoFkQKDW2Ae4M02ykypPdNJsRFVTib4b+BtwDjDdbJWkUTsFmNKi9/6XyS8ZEKi1lgcOT5NsfppkOxPWM2jrIKDKav39pfOBC3HQsCSN1drAri18/zvMAsmAQO1hEmHFyL+lSbYxtGdrQdXsQacC99C6Jm5J6hZfbPH7X20WSAYEai9bAremSfZNwmqStDo4qBowPLm/v/TO/v7SAuAQHCcgSY2awuJVg1vlz2aDZECg9nQE8K80yU4AKJYKLQsK4jiBrYHrgV/T5t2aJKmDLA+sk/M+7wPuBM4FrgLuBR4Y4vU3mg1S53Mdgu61AvC5NMn2Bj4MXAssHM/1C/r7S2sARwGfMDskKXcz4r2+UU8TBiafALw0xOsmAusBbwc2AnbAqY+lrmALQfdblzC+oJwm2QbNbC2oHjTc31/6LnCrwYAkNc1WOexjDrAB8OVhggEIU4zeGYOHj+f0/pIMCDRO+gir2t6ZJtmXgdUhv7EFNesJ7NLfX3ogBgLLmfSS1NYBwc7AEyalZECg3nIscHOaZIfn0XWoaj2BrYC/A5cBrzKZJanpZjW4/V2EMQKSDAja+tgcgNocKwMnpUl2V5pk2481EIgK/f2lb8ZgYDNCa4QkqfkaHT9wPzDPZJTUzgHBrcCpZlFTrQ/8KU2y69MkWxlG3o0otgp8PebTESZlS/QZgLX9fUxqps0a3H4OsMhklNS2swwVS4W5wKFpkp1FGMC0g9nVtHNgW+DJNMmOAE4Hnql9UaVrUPx9F+AM7BrUarcBX2liUDAX+CxVa1qMwSPxXGnm+Xuzp4J61ECLt5dkQNB8cYrM69Mke0MMCK7GGtFmOgn4appkBxdLhbOr/xFbBF4BXEGolbJWtvVuJ8wM0kwHNBgQ/Bv4klklte09RJLau1BXGfRaLBXmF0uFPxZLhQnA/wDPm3VNMxU4K02y/jr/ewLYwmBAo2QQL7WnBSaBpLYPCKpV+rYXS4UjgDWBX5p9TSu8LQDmmxSSJEkGBG2jeorMYqnwdLFUeB/wZuA6s1GSJEnq8oCgVhxfcBVhbMHbGX6FRUmSJEndEhBUtRgMFEuFywlz658KvGi2SpIkSV0eEFQHBrG14CXgUMJUmJeatZIkSdLwJnXDh6gZX/AUsFuaZLsCXyXMsS+pN6xMmAlrY+DVwNbAcoSJCAaA1Wpev4gwe1YfcC9wD/AgcAtwB3BjF6bRNGB3YDfgQGBV4PE2Or6dgb2B9wFHAWeOcT99wFoxz9eOn/OV8XzYOJ4PG8VzYBKwUp19zCFMsDARuAl4AXggniO3AQ/H51u1uNfCBref24bn58SYP5vH63YjQkXfajGPJgCvGOI6vht4ljClauVavgV4rAuv5eWBXeP1/Drg9W34OZeJ9+Q1gfWAAmHq8nVjXq9a8/rHgfvidXVFfMxuwnGtEI9nA+A18R6xZnwsC8xiyUrzfwP/Av4B/AG4DHjOgKAzAoPfpkn2O2AfoGg5SepaE+J1/vV4M+9j5K2fE6q+kFaJX6rEwuJALHBdChweCxrN8MtYAB7NzF6TGf10rpOBLxDWrhio2n7ZIQKCTwLfGcOxfRz4/iiPLwV+GAOWyrFtOcp97BkLSP3AOixezXusq3pXr8Hxppr/VZ8jvwa+FgsLjZoVC3UjmRK00e/wbwLHNxBwXQW8Lafr4M3AMTHvFo0yz2qvY4B3VAULA7FAdybwDeDlJl3L3yb0VBjNgm/zgdfGAHM097zjgcOAKTGdXhjmvvdhwsKjA028x1SsBhwE7B8L2qO5BleJj+3jPhYBxxEqeBtVAD4dKxsKVefxSI7rlfHx+nhfXBi/c47tpi/SrlUsFRYWS4WfxRqhk3GJdqmb7AKcHW/MPyPUBk/M6b5WCSomAwlwF/B3wkJteZtY9QU80kelADUSWwI/ItSyfbnq81VsP4LviNEe21YjPLZlgCMJNe1nA9Nrjm3lIbZdB/hYzPubY0HnfOBgQq3fpKrzoRlrYVSfI++J58eDsfCyRoP77RthWjf6uSaMMm+rH5NiYbQR28WA8zngyhgMkHOeTYjnwZox4Hgpvtf+TbqWJ40yHaeO4nzZmrDy+9x43UytSqcZMZgeKh0mjfI63m+Ex7VuDOjPjMHsI7EAv16D12Bf3P4r8fraeJTbrxkrJ86JlR4PA5+Nz09o8LgmxfvpTcD6BgQdII4veC5GhSsDt1qOkjracrEAeHn8EhovWwE/JkxcsFUbpMN2w/x/OvA7Qq31gYSWgHpe06S0Gu675zOEWs0TWVxbV6+gMZjjgdOADwCbtsm5uSZhZe6HgBPo/kX5bhnjdivEQvlfCbWty47zcb85Fl6fH0Vg3SwTRxAQLEdoqbwB+AiDtwy9Oudj+9gw/38joZvlPTGg35/FLTTNuKfcNMJzZbdYifMg8D1gX0LLWzNsFt+r44OCrg8IqlY7rqxfsGmszbnDcpXUMSoFqyMJNT2tLABOJ9RWndriNNlikOdXJqzo/hzw1hHsp9CEY9t6iP8dGr+ovzWC/cxkcW1lXoXR8fI54HpCLWm3X5ejcQTwaBsUxCHUql8J/JbQ4tQqaw1RwD8ZeJrQFW44eZ9r27J0K10/i1scy8ME7c0InjLCmJJ6wcn34/fDJS0ooF8d71cGBB0WJFxQLBU2IrQauCKv1P4G4hf3iYRm8nZwCGFcwbQWvf8ede7nnwCeJDSLTxzhfjZswrEtYslBun2EftLzgVNGEYRMHOJzXNQB5+02hFbptbv0uhzNANZlYyD9zTa6hiveTphU4B0tev/N6jz3UcIg1sNGEXi9tgllxC3jz50JA7evIrQ4rtiitFqO0PpWsSOhRa4c02xWi45rdeCPBgQdKHYlOjl+GZ5seUtqWzOBf9IeNYq11iN0y5nYgvfuY3Ef7ncQaqO/O4b9TG/Cd8EEFtccbkgYdHsdox8EuwKDdxG4qUPO3ykxcNyoC6/Nkc5OtRJwLe3R1W4ovyFMIDDeqlsn3hGDyO+P4bpcK+fjmggcHe+/f2Dp2Z1aZV9CC9zNwDU0NmYnT1sA7zUg6DBVMxL9q1gqfJowetzxBVL7+T1hCsJ29XpaUzM0IRYAfhoLMluPcT/TGLxbTiPHthrwKcL0j7uPcT/LxoBlMA91yDk8ETiPxgfhtpuR1FwvF4PVTTvkM51EGBg+nippc0G8ljce436aUTB+c5vm3Qltelz7derF3LMBQXVgEFsLHonjC/YhDBCR1PrCxll0xloiryN01xlPkwi15I1+AS1PmO2nGXn3vw3uZ9owheiHOuh83owumqKQ0C3swRG87ipa2z9/LL4YA/3xLIs9xtLdAEdrY9Rq7yS0bBoQdGpQAP/pRnResVR4DWGaK0mtsxXwoQ463u8y9DSZzQiY8uiLPYPm9OnO40txMkO3EFzXYef0UdQfENnJQftQfsTYW65aXTb6I+PbFXAV1C2Oo0NPetUEBvH3LxNqNb5vykjjbgqhq1Cn+XkHHvNU8u8ylKehZjHpxG6eR3bJNbqIMN/8YDamOet2jKdL6bypY9f066Pl9jUg6D73FUuFjxPm6X6E0a0+KGnsjiN0Zek0ryMsitVJlmH854EfjdWHukcTFqbrJLu1eQA2GkPN0lei89dh2IXOGftQsR1qtRVpn4HOBgR5qBpfcFexVHgl8EHCokSSmmc6HVrDQuh+8+EOPO5CGx/bUDPTPE7nTR29Nt1RizsAPDXI/z7A+M5P30xnddjxzkTtULbuuPVHJplvwwcFVb+fC5ybJtlphL7NM0whKXevJd8VN18gtPBdAtxIWO1zIqFmeUtgE8JgvjVyuqY/T5iqr5O086DPoVpcMmAe9deCWBCDhcrPuYTF2m4k1NBfyeCVYq+KBffNCPOaTyff9SYOi4/BCtoD8bhH8h3eSC38IsbewjIvXlv1CkP/1YTzYBHwUnzfBVXpU5l+d2LMp7xnctqS0EpwS4dcyx2/Ym4X6GPJdVgMCLpRbDH4eJpk3yYMPN7HVJFy9bWc9jM/Fs5/BTwwyGturirErxmv52/m8GWwC2F9gk7RzrVZQw3Unl1VAPw3Yb7/PxBmivsX8CzwDGGl1+fG+P4rEKalfjfwjZw+00FDBARPE2a4Ga6L6guEaSobCeZOB84cY1AxADxf5/llyXeGngWE2Zn+FAPAJ2JeLqp5zxnxGt4AOJiwcm1evkznzC//atQOAUGh0w7agGCUqloM7i6WCvumSXYKcK4XoZSLGYQVMRuVAW+KBcSReogwB/nfgctobIaRj3VAQLAofuaPAb9tw+ObHQuC34lfsIMVkPcgzAjTrO6cT8fHbcC347nV6GxSyxD6Gc8ZJJD98wj30+hnfhD4S87ptVdOZYtFhEk9DhnBa5+Pj8eAvwHnxPvIBeQz89fWhK44z7XptTyfMJ7mo4QVe9vFizFwnRsD9tuBHQhrU6xCaxZ0rBxX5fE0odVw+xj8r5zT+dtpU+06hqCRwCC2FlxLWInz3aaK1LA9ctjHo4R+53ePcfsrgfc1eAwbt/DLbiQuiF/M67RRMFAp8N8Xz4NCDAZg6Nryyxi/sV1zCauRPpXDvtbr0mv4kznt560jDAYG80fCOIbrcziWtWjfSQ5+SWiR2aRNgoF5hOlmdyd0/1yf0HKzPWF81YaE7njbxSBhvMwBvgf0A9sQWpJeHa/n/eNxrQskLO6214hpnXbhGhA0GBRELxdLhRKOKZAatWMO+ziK0K2gEecz8lrael5B6HveTgYI3WheD7wnFpQWtdHxPQF8PAYpFwEvt+k5mgGn5bCfdbr0Gs5j3YH3EBY0a9QzsSDa6Lk0AXhDG6XxQsKYhg1i5cV1jGzMSTML22VCV8mphC5xvyG0qj0zSGD9D+AdNHdSgEfjvXxTQp/+Q4CrgTuo3zr3AmGq2bfS+AxZHTcrpQFBjoFBsVR4MU0yE0Qa+/2o0VrTxwl9ovNwXgPbTif/1X8bcTuwUyxAXNNm+f4ccCChtq5T1n05IYd9LNeF13AeheargQtzDoT7c9jPW9okjW8ljI9opBU0LzcTatQ3JXTRvGKU+XJTvGfn7VcsbgXYi9GvV/J74J+9+AWsJgQHprPnuEZtMmHwZiPyXGG83MC2M2iP5eufIiyEtTFwLe01Z//zwM8IXTF+Qvu2CNTzAmHAciPW7cJreMMc9vE98q9dvYEwNqiTA4KHCbM3bRqD+gUtPPf/QZiBa3Pg1zTW9ecPOR3X00CR0BKwd8zvRsZ8XGZhSXmbB5xtMrTEHcAPTIaOCghWb3AfeQ7kvanB7Vu9oNHnCS0uJ7VhXl8Y0yelcxd8vK7B7ad04TW8WQ77+EUTjmsBjQ+ebuXEIUfEtD2jxfn7A0Kf+63JbxrWGxvcfhHw1Xg/+RD1uwKNxVwDAuWqWCosKpYKh8SL6AZTZFzMBo4ul5ONyuXklv7+kinSGfpobAXX52m81jZPrRpTdD1hEN+JhFqzdnIfsGd8PNDh5+ujDW4/0IXXcKPjZprZnS2Pmujx7uZ1HbAq8D9tcC1fTJiR7N6c9zuvwe1fAL5EGNsjA4L2Fmcjuokwq8cu1J+7Wfk4EdioXE6OrzxRLiemSmeY1OAX7jPkX6vTSCvBFuOcfgsIg/R2IHQvaDefICzydGGXnK99XrJLmEgYTN+IO5ocKDdq5XFKyxcIY352oDl97Mdisqd4938Bq8mqxhUsKJYKVwAz0yT7IbAvYUEVNe5aYP9yObnbpOjZAtZC8p8156UGth2vQcULCDNpvL8N83SAMC/8HozvFINqjUYrGa9s4rHlUVnQ7KkkXyKsqP5eTyV12sWrUQYGlVmIiqXCwYQ+iWeZMg15njCN4hvK5eRuuwepB13dpsFApYAz3vONq3O1eyXlRk3e/xkGA/Li61JpkvUBM4ulwrOVoKDKnGKpsH+aZOcA3yIsLKKReRr4brmcfLH6SbsH9bx5Oe+vE/p5v2y2S+Oi2d3EXjSJZUDQvaYAN6RJ9tViqXBWHE9ADA4G4s/L0iT7PfB2oIR9U4fzHeDL5XIyB6C/v2QgIAj9l39KfgvdzCessilJkgGBGq5RmAX8NE2yg4DDCHP4Uh0cAPOLpcLFwIQ0yX5AGF8w0+RbwrXAMeVycmW9ZUNgAAAPC0lEQVR11yCDAUXLYHO7JEmj5hiC8bUz8Nc0yS6BJbsP1fz+UUJfxUtNMiBMJflGYOdKMGAQIEmSlA9bCMbfZGC3NMkWEVoLziyWCs/VtBZQLBWy+Lp3A8cSpuvrNc8QuoB8qlxOBiqtAgYDkkZhZcK6DMsTupXlMX3iPFq7UJUkGRB0iT7gFOBLaZLtXSwVrq59QQwSLootCu8Bzuuh9PkFcEi5nDxZecJAQNIIrQR8AdgbWJEwlmui33mSVJ9dhlrvFUA5TbJfp0m2bfU/atYv+AWhhuv0Lk+Pa4G3l8vJ+6uDAUkagT0Jq7s+BXwGeBVhLNZUgwFJMiDoBO8ErkuT7Lw0ySYC1WsWVFoLngUOJjSBX9uFaZAQ1hO43PUEJI3CLOBu4FfAa00OSTIg6GR9wPuAJ9Mk+zihiZs64wtmF0uFHYH9gZu64HN/G5hcLie/Jqy6avcgSSO1FXAvsB5O2SxJBgRdZAXge8BzaZLtWLPCcXVgcFaxVNgCOKpDP+efCFNFfrZcThY4e5CkUdo83kecolmSDAi61nTgmjTJfgVsWnmyEhxUfi+WCicAqwI/pjNWVr0ReFe5nOxcLicvVYIAgwFJo/SzWKkgSTIg6HrvAf6ZJtmpaZL11a5fEIOCx4GPEAbR3dumn2MhsF+5nGxVLicXQ1hlWJLG4DSqKkokSQYEvZJXhwD/TpPso5Unq8cXFEsFiqXCw8VSYT1gP+DONjr+bwFrlMvJ2a4yLKlBq8V7nCTJgKBnvwi/nybZo2mSvboSDFR3I4rBwdnFUmFD4Gu0thvRDcCscjk5HHjUIEBSDt6CXYUkKTfOy9y5VgXuj+MLPlMsFR6sfUFsPTgmTbIzgWMIsxKNl5uAr5XLyS8hdA0yEFCTPUNY7O/lNjiWPrpjBrB2ZeuAJBkQqMpewF5pkh0PfKlYKiyo/KNqrMG9xVLhw2mSHQNcDazd5GP6dLmcnFwdCBgMaJwCgm/Fn+pub8txX2NtQXWKU0kGBGo7RwHvS5PshGKpcAYsHl9QNfD4IWCdNMkOAr5K6H6Up+8A3yyXk4crTxgISMrZDjnt5ybgAuAOYO4ot50HHAm8weyQZECgdrMucHqaZEcRatD+Raz9qpmZ6AzgjDTJ/hf4VIPvORDfZ+dyOXnEWYMkNdk2OdyzPgOc3OB+9jUres4ik0DdykHF3Wkd4B7gvDTJCrD02gUxMPg0sCFhLu+xeBRIy+VkvUowYIuAWmjAJOgJ2za4/e9yCAa0tD4a70a1QpsX5v9mNsuAQJ3ovcDDaZIdVn2jrm4tAO4slgopsDPw+Aj3+zJwfLmcrF4uJ+dUnjQYUIsL9CsC00zGrveaBrc/1CRsWoG70QH9WzTx+F6Zwz4mms0yIFAnOxm4K02yD8GSrQVV4wv+VCwVVgUOBGYDkwfZ14+Bjcvl5Gi7BylnC2hsQPAUv7B7QqGBbecCd5mETQsI5jS4j12aeHyb57CP+81mGRCo060HnJUm2fXACmmS9VWCg+q1DIqlwk9iYHBLnX3sVC4nHwHuA1sE1BSNtBJMA2aahJ4jQ3jW5Guquxvc/lXAsk06tt3NHsmAQIttCzwFnJkm2cxKCwEsNfD4yeqN4viAPztOQE00n5F3WxvMB0xGqWXuzGEfn27CcU0Ctm9wH38we2VAoG7M9/2AZ9Mk2weYDkuvdlytEgQYDKjJAcFDDe7j8yaj1DI357CP/YEZOR/Xh4A1GtyHCw3KgEBd7Vzg+jTJkprBxtJ4W0iYuaoRU4DPmZRdrZGZbGbleBzOatWcgGBd4Ec5HtNOhLFvjTrL7JUBgbrdJsBFaZJdmybZK00OtVA5h30cDWwwjse8DKH28UAar4XU8BrtVrZjDscwjXxmrelG5+Swj/fH/TQ6a9iWwEU5HM+zwMNmrQwI1Ct2AO5Ik+ycNMlmmBxqgcty2MdyhPnCD2nicW5ImL7ykvhe9xJqNd9iFjbdvQ1u/8MGtp0J/IAwscKbzYq6vpvTfvYF/g4cMIZtVwWKwPXAyjkcy/3Ak2atDAjUS2YC76Px1UClsXgIeDCn8/jU+EW+B2H2kuWAqSPYdkp83UqEKS7XJdQqHwNcRegqcjtwCrAbsFHcBmBXs7Dtg8ZNgOMYWT/1KbFw+VrgAkJN8cHAambDoG4CHslpXxsRuvu8HK+3XeP1uGadx+bAQcCthK6HHyQMJs7DpYQxTlLXmmQSqI4BQn9uqRW+AJyd075eHQtyL8dCwouEWbb6CHOm3xMLHdVTHa4Q/79iDCxGM5XptoSKlkVmY9PcnsM+vkSogb4EuBa4Md7zpgBbAWsTKkXWB1Ynn1rmXvE8YUae9+e4z6mEFrnKonIv1XnN9CZ+puPMVhkQSNL4ujAW2vMshE0D1hqHY59JaFmwe0Hz/CWn/awPfCo+lK+jcg4IxrPwX+sbgwQgUlexy5CkdvM8cEWHHnslIFBzXWIStLX7gNO64HM8Q35jIiQDAkkapUM79LiXIXRTUnOdaxK0tT7gcDq/pex04N9mpwwIJKk1niAMbu9Eu5l9TXcNYTyI2tNAzJ/DO/gz/B44wqyUAYEktdb5hNk9Os0bzLqmux+42GRoez8FTu7A434UeC+NLYInGRBIUg4WArsDN3TYcW9t1o2L95sEHeEIoNRBx/syYUGz2bgatQwIJKltbEdYYKiTbGu2jYuDTYK2twB4N6HFr909Qljl/DGzTQYEktQ+Bghz+u8I/KyDjnt3s25cnA5c3cL3/yJwi9kwInsDH2nj4/s9YdGzh8wqGRBIUntaCKSEQYrtXnv3HE49Op76WxAU/A7YHvg6cI5ZMOLg/seEhQCvbaPjegr4CvAWQnchyYBAktq4MAHwrVigOKUNj/E2Qg3oWsBnzbJx9bZxKphfDKwB7ApcF5+7yuQflTuANwKvp/XTkh5LaBX4cs19RjIgkKQqU1u8fT1zgMMIKxmfBNzYgnSZA/yDMB/+fwFrApsQakBnE/pNj9SUBo9lShM/Z6Or2U8bp/yYB3wQ2DcGZnm6mbA41frAu4CM0I2t4n7CYnqjNbkNrs/JLbqvzCdMHTsLeCdh0PHj4/C+C2Mg9w3CIoLHERYfy8vkNs6PiW16n2nXe8zkNk2vtr3ZS+puBwIzGtj+aZpX6zYbODLeeCcD+wD70ZxpP+cSpkC9HvglYfDhvPho1FeAH40xnfrisTTLhcADsSA1FgvG+Xz9OXBBPAdOJQwQHYvbYnB3diwwzh3itU8Q+sdPH+V73JPD5/0YsNwYt+0Dbm2De8wlwG9i+m0KfAg4oMH7Tq3fEqZAvTjm5fwmfZbTgMsb2P6uJqbz5cCeDWzfrK6aFxBWtm63e8xZwF8b2P6+Tvuyd47dJkuTbBphTuPlO+iwFwD9xVLhGnNQHWptYCtCzf1GhNqxVzJ0LdnjsYD/cAxk7oq/397EAoSaa1VC3/Bt4rmwfE3gtYiwEu1ThJr/PxJaftR6MwgzjK0br+fVgGWBFQYJnit5+SLwL0LLzU3xd0nDsIVAUje6j6VraIbrIrnIZOs6jxHGFpxDqACbUKcwab63pxcI4zOqx2gMlofmpWRAIEkjYmGhtw0w9m4JMg+lruagYkmSJMmAQJIkSZIBgSRJkiQDAkmSJEkGBJIkSZIMCCRJkiQZEEiSJEkyIJAkSZJkQKDRGTAJJEmSZEDQm+YBRwIvmxSSJEkyIOg9i4qlwunFUmE6cFEMECRJkiQDgl5QLBWqf98D2B641JSRJEmSAUFvBgg3FkuF3YC3Ak+ZIpIkSTIg6DFpklEsFa4E1gE+ASw0VSRJkmRA0COquhE9WywVTgOWA34HLDB1JEmSZEDQQ4FBbC14sVgqvA3YGvizKSNJkiQDgh4KCqrcUiwVdgIOAJ4xdSRJkmRA0FvBwUD8eSawNvB5U0WSJEkGBL1pTrFUOBF4BY4vkCRJkgFBb6kaX/BUHF/weuAOU0aSJEl56jMJOkuaZIcAxwCrNvFtFgD9xVLhGlNckiSpu9lC0FnBAMVS4bvAJsAXTRFJkiQZEPSQqhmJniqWCl8HVgeuNWUkSZJkQNBjgUFsLXgU2AnYHHjYlJEkSZIBQQ8FBdFAsVS4uVgqrAkcBzxh6kiSJMmAoPcCA4qlwrHAOsAppowkSZIMCHrT88VS4TBgCxxfIEmSJAOC3lI1vuAm4I3AzsAcU0aSJEn1uA5Bj0iT7KvAJ4CVRvBy1yGQJEnqEbYQdH8gAECxVDiGML7gJ6aKJEmSKmwh6M0goR/4GmHK0npsIZAkSeoRthD0XjBAsVQoA28AtgNeNlUkSZIMCNQjqqYpXVQsFa4HlgG+Bbxo6kiSJBkQqIcCg9haMFAsFQ4HVgZ+Y8pIkiQZEKiHggL4z8Djl4ulwu7ALsAfPDckSZKkHpUm2YQ0yRxwLkmSJEmSJEmSJEmSJEmSJEmSJEmSJEmSJEmSJEmSJEmSJEmSJEmSJEmSJEmSJEmSJEmSJEmSJEmSJEmSJEmSJEmSJEmSJEmSJEmSJEmSJEmSJEmSJEmSJEmSJEmSJEmSJEmSJEmSJEmSJEmSJEmSJEmSJEmSJEmSJEmSJEmSJEmSJEmSJEmSJEmSJEmSJEmSJEmSJEmSJEmSJEmSJEmSJEmSJEmSJEmSJEmSJEmSJEmSJEmSJEmSJEmSJEmSJEmSJEmSJEmSJEmSJEmSJEmSJEmSJEmSJEmSJEmSJEmSJEmSJEmSJEmSJEmSJEmSJEmSJEmSJEmSJEmSJEmSJEmSJEmSJEmSJEmSJEmSJEmSJEmSJEmSJEmSJEmSJEmSJEmSJEmSJEmSJEmSJEmSJEmSJEmSJEmSJEmSJEmSJEmSJEmSJEmSJEmSJEmSJEmSJEmSJEmSJEmSJEmSJEmSJEmSJEmSJEmSJEmSJEmSJEmSJEmSJEmSJEmSJEmSJEmSJEmSJEmSJEmSJEmSJEmSJEmSJEmSJEmSJEmSJEmSJEmSJEmSJEmSJEmSJEmSJEmSJEmSJEmSJEmSJEmSJEmSJEmSJEmSJEmSJEmSJEmSJEmSJEmSJEmSJEmSJEmSJEmSJEmSJEmSJEmSJEmSJEmSJEmSJEmSJEmSJEmSJEmSJEmSJEmSJEmSJEmSJEmSJEmSJEmSJEmSJEmSJEmSJEmSJElqe/8f+6Y56bFIFhwAAAAASUVORK5CYII=;clipPath=inset(16.24% 67% 20.06% 0%);" vertex="1" parent="1">
          <mxGeometry x="-4189" y="-1323.9499999999998" width="85" height="85.86" as="geometry" />
        </mxCell>
        <mxCell id="0HQ5hYbZlLRODxi1FuQu-18" value="Production" style="rounded=0;whiteSpace=wrap;html=1;align=left;verticalAlign=top;" vertex="1" parent="1">
          <mxGeometry x="-3732" y="-1255.02" width="638" height="242" as="geometry" />
        </mxCell>
        <mxCell id="0HQ5hYbZlLRODxi1FuQu-19" style="edgeStyle=none;curved=1;rounded=0;orthogonalLoop=1;jettySize=auto;html=1;fontSize=12;startSize=8;endSize=8;" edge="1" parent="1" source="0HQ5hYbZlLRODxi1FuQu-20" target="0HQ5hYbZlLRODxi1FuQu-29">
          <mxGeometry relative="1" as="geometry" />
        </mxCell>
        <mxCell id="0HQ5hYbZlLRODxi1FuQu-20" value="Container Registry" style="image;aspect=fixed;html=1;points=[];align=center;fontSize=12;image=img/lib/azure2/containers/Container_Registries.svg;" vertex="1" parent="1">
          <mxGeometry x="-3703" y="-1189.02" width="68" height="61" as="geometry" />
        </mxCell>
        <mxCell id="0HQ5hYbZlLRODxi1FuQu-21" value="Azure Cosmos DB" style="image;aspect=fixed;html=1;points=[];align=center;fontSize=12;image=img/lib/azure2/databases/Azure_Cosmos_DB.svg;" vertex="1" parent="1">
          <mxGeometry x="-3173.7200000000003" y="-1098.0173248332997" width="61" height="61" as="geometry" />
        </mxCell>
        <mxCell id="0HQ5hYbZlLRODxi1FuQu-22" value="Azure MySQL&lt;div&gt;&lt;br&gt;&lt;/div&gt;" style="image;sketch=0;aspect=fixed;html=1;points=[];align=center;fontSize=12;image=img/lib/mscae/Azure_Database_for_MySQL_servers.svg;" vertex="1" parent="1">
          <mxGeometry x="-3173.7200000000003" y="-1222.0214211311659" width="46.36" height="61" as="geometry" />
        </mxCell>
        <mxCell id="0HQ5hYbZlLRODxi1FuQu-23" value="" style="endArrow=classic;startArrow=classic;html=1;rounded=0;fontSize=12;startSize=8;endSize=8;curved=1;exitX=0.891;exitY=0.636;exitDx=0;exitDy=0;exitPerimeter=0;" edge="1" parent="1" source="0HQ5hYbZlLRODxi1FuQu-27" target="0HQ5hYbZlLRODxi1FuQu-22">
          <mxGeometry width="50" height="50" relative="1" as="geometry">
            <mxPoint x="-3243" y="-1228.4702015090265" as="sourcePoint" />
            <mxPoint x="-3460.36" y="-1228.02" as="targetPoint" />
          </mxGeometry>
        </mxCell>
        <mxCell id="0HQ5hYbZlLRODxi1FuQu-24" value="" style="endArrow=classic;html=1;rounded=0;fontSize=12;startSize=8;endSize=8;curved=1;" edge="1" parent="1" source="0HQ5hYbZlLRODxi1FuQu-25" target="0HQ5hYbZlLRODxi1FuQu-27">
          <mxGeometry width="50" height="50" relative="1" as="geometry">
            <mxPoint x="-3581" y="-1150.02" as="sourcePoint" />
            <mxPoint x="-3357" y="-1157.8485714285714" as="targetPoint" />
          </mxGeometry>
        </mxCell>
        <mxCell id="0HQ5hYbZlLRODxi1FuQu-25" value="Azure Kubernetes&amp;nbsp;" style="image;aspect=fixed;html=1;points=[];align=center;fontSize=12;image=img/lib/azure2/compute/Kubernetes_Services.svg;" vertex="1" parent="1">
          <mxGeometry x="-3474" y="-1188.02" width="68" height="60" as="geometry" />
        </mxCell>
        <mxCell id="0HQ5hYbZlLRODxi1FuQu-26" style="edgeStyle=none;curved=1;rounded=0;orthogonalLoop=1;jettySize=auto;html=1;fontSize=12;startSize=8;endSize=8;exitX=0.909;exitY=0.718;exitDx=0;exitDy=0;exitPerimeter=0;" edge="1" parent="1" source="0HQ5hYbZlLRODxi1FuQu-27" target="0HQ5hYbZlLRODxi1FuQu-21">
          <mxGeometry relative="1" as="geometry">
            <mxPoint x="-3243" y="-1208.5421997077804" as="sourcePoint" />
          </mxGeometry>
        </mxCell>
        <mxCell id="0HQ5hYbZlLRODxi1FuQu-27" value="Private Endpoint" style="image;aspect=fixed;html=1;points=[];align=center;fontSize=12;image=img/lib/azure2/networking/Private_Endpoint.svg;" vertex="1" parent="1">
          <mxGeometry x="-3340" y="-1179.8899999999999" width="48.95" height="44.87" as="geometry" />
        </mxCell>
        <mxCell id="0HQ5hYbZlLRODxi1FuQu-28" style="edgeStyle=none;curved=1;rounded=0;orthogonalLoop=1;jettySize=auto;html=1;fontSize=12;startSize=8;endSize=8;" edge="1" parent="1" source="0HQ5hYbZlLRODxi1FuQu-29" target="0HQ5hYbZlLRODxi1FuQu-25">
          <mxGeometry relative="1" as="geometry" />
        </mxCell>
        <mxCell id="0HQ5hYbZlLRODxi1FuQu-29" value="" style="image;aspect=fixed;html=1;points=[];align=center;fontSize=12;image=img/lib/azure2/identity/Entra_Managed_Identities.svg;" vertex="1" parent="1">
          <mxGeometry x="-3588" y="-1189.02" width="68" height="60.440000000000005" as="geometry" />
        </mxCell>
        <mxCell id="0HQ5hYbZlLRODxi1FuQu-31" value="" style="endArrow=classic;startArrow=classic;html=1;rounded=0;fontSize=12;startSize=8;endSize=8;curved=1;exitX=0.621;exitY=1.098;exitDx=0;exitDy=0;exitPerimeter=0;" edge="1" parent="1" source="YYszYzWy7kJKxbxRJTAu-80" target="0HQ5hYbZlLRODxi1FuQu-20">
          <mxGeometry width="50" height="50" relative="1" as="geometry">
            <mxPoint x="-3388" y="-1063" as="sourcePoint" />
            <mxPoint x="-3338" y="-1113" as="targetPoint" />
          </mxGeometry>
        </mxCell>
      </root>
    </mxGraphModel>
  </diagram>
  <diagram id="4jVQduN1iPwlpBIypyKF" name="Page-2">
    <mxGraphModel dx="771" dy="379" grid="0" gridSize="10" guides="1" tooltips="1" connect="1" arrows="1" fold="1" page="0" pageScale="1" pageWidth="1169" pageHeight="827" math="0" shadow="0">
      <root>
        <mxCell id="0" />
        <mxCell id="1" parent="0" />
      </root>
    </mxGraphModel>
  </diagram>
</mxfile>
